<svg width="313" height="126" viewBox="0 0 313 126" fill="none" xmlns="http://www.w3.org/2000/svg">
<g clip-path="url(#clip0_731_209)">
<path d="M80.0215 47.575V47.567C78.0636 43.3558 75.057 40.0204 71.0974 37.6609C67.1298 35.2933 62.0776 34.0536 56.0844 33.9856L28.5107 33.6816V39.3686L28.5267 39.9684L29.0849 40.1084L38.4915 40.4484C32.5581 43.2878 28.5067 49.4866 28.5067 56.5053L28.5147 93.3063L53.7916 93.5982C55.1593 93.6182 56.4832 93.5702 57.7671 93.4543C62.1773 93.0663 66.0971 91.9225 69.4466 90.0429C73.793 87.5914 77.1584 83.9601 79.4552 79.241C81.752 74.5658 82.9124 68.8509 82.9124 62.2642C82.9124 56.6933 81.9395 51.7502 80.0135 47.575H80.0215ZM54.7605 86.4836L40.1583 86.7075C44.2415 83.3842 46.6858 78.2931 46.6858 72.8422V40.7283L54.5372 41.0042C58.4969 41.0442 61.7307 42.092 64.1591 44.1077C66.6194 46.1113 68.4377 48.8987 69.5742 52.3901C70.7186 55.9214 71.3008 60.0486 71.3008 64.6357C71.3008 71.4304 69.961 76.8814 67.3252 80.8167H67.3172C64.7413 84.6839 60.6342 86.5396 54.7566 86.4756L54.7605 86.4836Z" fill="white"/>
<path d="M158.516 66.4434V59.8646H168.201V66.4434H158.516ZM163.867 56.0214C162.256 56.0214 161.068 55.5974 160.302 54.7496C159.536 53.9018 159.154 52.826 159.154 51.5262C159.154 50.2265 159.536 49.1627 160.302 48.3348C161.068 47.507 162.256 47.0911 163.867 47.0911C165.478 47.0911 166.658 47.503 167.404 48.3348C168.15 49.1627 168.524 50.2265 168.524 51.5262C168.524 52.826 168.15 53.9018 167.404 54.7496C166.658 55.5974 165.478 56.0214 163.867 56.0214ZM160.007 91.9705V59.8646H168.201V91.9705H160.007Z" fill="white"/>
<path d="M87.5379 66.4434V59.8646H97.2236V66.4434H87.5379ZM92.8892 56.0214C91.2782 56.0214 90.0899 55.5974 89.3243 54.7496C88.5587 53.9018 88.1759 52.826 88.1759 51.5262C88.1759 50.2265 88.5587 49.1627 89.3243 48.3348C90.0899 47.507 91.2782 47.0911 92.8892 47.0911C94.5001 47.0911 95.6804 47.503 96.4261 48.3348C97.1718 49.1627 97.5466 50.2265 97.5466 51.5262C97.5466 52.826 97.1718 53.9018 96.4261 54.7496C95.6804 55.5974 94.5001 56.0214 92.8892 56.0214ZM89.0293 91.9705V59.8646H97.2236V91.9705H89.0293Z" fill="white"/>
<path d="M114.071 92.7985C111.75 92.7985 109.716 92.3866 107.97 91.5587C106.219 90.7309 104.864 89.5471 103.903 88.0114C102.938 86.4757 102.459 84.62 102.459 82.4524C102.459 80.0889 103.037 78.1573 104.198 76.6576C105.358 75.1618 106.989 74.0381 109.09 73.2862C111.192 72.5383 113.66 72.1624 116.487 72.1624H123.916V77.0695H116.368C114.482 77.0695 113.038 77.5334 112.033 78.4572C111.032 79.385 110.53 80.5768 110.53 82.0365C110.53 83.4963 111.032 84.676 112.033 85.5839C113.034 86.4917 114.482 86.9436 116.368 86.9436C117.508 86.9436 118.557 86.7356 119.522 86.3237C120.483 85.9118 121.292 85.1999 121.938 84.1961C122.588 83.1923 122.951 81.8206 123.031 80.0849L125.037 82.3925C124.841 84.64 124.299 86.5317 123.414 88.0674C122.528 89.6071 121.312 90.7789 119.757 91.5867C118.206 92.3946 116.308 92.7985 114.067 92.7985H114.071ZM124.387 91.9706V82.4524H123.031V71.8665C123.031 70.0148 122.58 68.6351 121.675 67.7273C120.77 66.8194 119.374 66.3675 117.488 66.3675C116.503 66.3675 115.327 66.3875 113.951 66.4275C112.576 66.4675 111.188 66.5155 109.796 66.5755C108.401 66.6355 107.153 66.7035 106.052 66.7834V59.8048C106.957 59.7248 107.978 59.6488 109.118 59.5688C110.259 59.4888 111.427 59.4408 112.627 59.4208C113.824 59.4008 114.956 59.3928 116.017 59.3928C119.318 59.3928 122.058 59.8288 124.243 60.6926C126.424 61.5604 128.075 62.9202 129.196 64.7718C130.316 66.6275 130.874 69.051 130.874 72.0464V91.9746H124.391L124.387 91.9706ZM111.894 56.3414L119.709 47.863H127.166L119.761 56.3414H111.89H111.894Z" fill="white"/>
<path d="M135.368 91.9704V59.8646H141.852V73.466H141.676C141.676 68.8548 142.657 65.3635 144.623 63C146.589 60.6364 149.476 59.4526 153.288 59.4526H154.468V66.6073H152.227C149.476 66.6073 147.343 67.3471 145.831 68.8229C144.316 70.3026 143.563 72.4422 143.563 75.2376V91.9704H135.368Z" fill="white"/>
<path d="M189.794 93.0944C186.963 93.0944 184.466 92.6425 182.305 91.7346C180.144 90.8268 178.318 89.595 176.822 88.0393C175.327 86.4836 174.199 84.72 173.433 82.7483C172.667 80.7767 172.285 78.7291 172.285 76.5975V75.3537C172.285 73.1462 172.687 71.0466 173.493 69.0549C174.298 67.0633 175.459 65.2917 176.97 63.732C178.481 62.1763 180.319 60.9525 182.481 60.0647C184.642 59.1768 187.078 58.7329 189.79 58.7329C192.501 58.7329 194.938 59.1768 197.099 60.0647C199.26 60.9525 201.098 62.1723 202.61 63.732C204.121 65.2877 205.273 67.0633 206.059 69.0549C206.844 71.0466 207.239 73.1462 207.239 75.3537V76.5975C207.239 78.7251 206.856 80.7767 206.091 82.7483C205.325 84.72 204.193 86.4836 202.701 88.0393C201.206 89.595 199.38 90.8268 197.219 91.7346C195.057 92.6425 192.581 93.0944 189.79 93.0944H189.794ZM189.794 86.0597C191.799 86.0597 193.486 85.6158 194.866 84.728C196.242 83.8401 197.282 82.6404 197.992 81.1206C198.698 79.6049 199.053 77.8773 199.053 75.9456C199.053 74.014 198.69 72.2303 197.96 70.7146C197.23 69.1989 196.17 67.9951 194.778 67.1073C193.383 66.2195 191.72 65.7756 189.798 65.7756C187.876 65.7756 186.209 66.2195 184.817 67.1073C183.422 67.9951 182.349 69.1989 181.603 70.7146C180.858 72.2343 180.483 73.978 180.483 75.9456C180.483 77.9133 180.846 79.6009 181.575 81.1206C182.301 82.6404 183.354 83.8401 184.73 84.728C186.105 85.6158 187.796 86.0597 189.802 86.0597H189.794Z" fill="white"/>
<path d="M243.908 87.9153V93.0263H211.741V43.1638H217.244V87.9153H243.908Z" fill="white"/>
<path d="M287.484 93.0263H281.088L266.326 72.0423L251.501 93.0263H245.176L263.132 67.6831L245.719 43.1638H251.907L266.326 63.348L280.685 43.1638H286.942L269.524 67.6831L287.484 93.0263Z" fill="white"/>
<path d="M0 126V14.3173L313 0V111.683L0 126ZM5.93342 20.0002V119.769L307.071 105.996V6.22681L5.93342 20.0002Z" fill="white"/>
</g>
<defs>
<clipPath id="clip0_731_209">
<rect width="313" height="126" fill="white"/>
</clipPath>
</defs>
</svg>
