<svg width="28" height="32" viewBox="0 0 28 32" fill="none" xmlns="http://www.w3.org/2000/svg">
<g clip-path="url(#clip0_1597_1185)">
<path d="M0.853266 3.75812L0.648438 31.2023L27.1921 28.486V1.04175L0.853266 3.75812Z" fill="white"/>
<path d="M21.6173 11.586V11.5839C21.0285 10.2992 20.1262 9.28147 18.9372 8.56198C17.7451 7.83935 16.2273 7.46187 14.4269 7.43997L6.14258 7.34717V9.08231L6.1477 9.26583L6.31566 9.30859L9.14229 9.41182C7.35926 10.2783 6.14258 12.1689 6.14258 14.3096L6.14463 25.5338L13.7386 25.6225C14.1493 25.6287 14.5477 25.6131 14.9328 25.5787C16.258 25.4608 17.4358 25.1115 18.4415 24.538C19.7473 23.7893 20.7591 22.6829 21.4484 21.2439C22.1386 19.8174 22.4868 18.075 22.4868 16.0656C22.4868 14.3659 22.195 12.8592 21.6163 11.586H21.6173ZM14.0274 23.4535L9.64104 23.5223C10.868 22.5088 11.6023 20.9561 11.6023 19.294V9.49941L13.9609 9.58387C15.1499 9.59639 16.1218 9.91547 16.852 10.5296C17.5914 11.1407 18.1383 11.9916 18.4794 13.0562C18.8235 14.1334 18.9986 15.392 18.9986 16.7914C18.9986 18.8633 18.5951 20.5255 17.8045 21.7267H17.8024C17.0282 22.9061 15.7941 23.4723 14.0285 23.4535H14.0274Z" fill="black"/>
<path d="M0 32V2.87383L28 0V29.1262L0 32ZM1.52392 4.27633V30.2836L26.4761 27.7226V1.71533L1.52392 4.27633Z" fill="black"/>
</g>
<defs>
<clipPath id="clip0_1597_1185">
<rect width="28" height="32" fill="white"/>
</clipPath>
</defs>
</svg>
